<svg xmlns="http://www.w3.org/2000/svg" viewBox="0 0 64 64"><rect width="64" height="64" rx="15" fill="#0a0a0a"/><rect x="1" y="1" width="62" height="62" rx="14" fill="none" stroke="#ffffff" stroke-opacity=".14" stroke-width="2"/><path transform="translate(12.145 14.47) scale(.15942)" fill="#fff" fill-rule="evenodd" d="M12 2 L21 2 L107 25 L109 27 L109 52 L111 54 L182 36 L231 21 L237 21 L243 24 L247 32 L247 205 L245 211 L236 217 L147 217 L144 215 L144 188 L140 183 L90 199 L27 216 L15 218 L5 213 L2 205 L2 15 L4 8 L11 3 Z M85 51 L92 53 L191 110 L196 113 L197 117 L94 180 L85 183 L83 181 L84 52 Z"/></svg>